- 
http://www.Speed.Cd 
       
http://www.Speed.Cd      fast  and The Hottest Private Tracker on the net

(((--Submit for invite!!--)))

Please Seed back to make the speed Faster!!!

------------------nfo--------------------------
-                                                                                                     
       
     
     
       
       
     
     
                                         
                                         
                EXVID                    
                                         
         
                                         
         Filled the Archives             
                                         
         
                                         
                With:                    
                                         
         
                                         
                                    
     E240                           
                                    
     SP               (C) 2009      
                                         
     
     
     
                                                                                  
                                                                                   
            The.Night.of.the.Hunter.1955.WS.BDRip.XviD-EXViD                        
                                                                                   
                                                                                  
     
                                                                                               
EXViD aims to iNTERNAL those releases which have been lost in the archives.
EXViD aims to PRE non-internal releases which have poor sources and are likely skipped by others.
 
http://www.imdb.com/title/tt0048424/
Subtitles: English
Date: 2011.09

Director: Charles Laughton

Genres: Drama | Film-Noir | Thriller

Plot:
A religious fanatic marries a gullible widow whose young children are reluctant to tell him
where their real daddy hid $10,000 he'd stolen in a robbery.

Cast:
Robert Mitchum 	 ... 	 Harry Powell
Shelley Winters 	 ... 	 Willa Harper
Lillian Gish 	 ... 	 Rachel Cooper
James Gleason 	 ... 	 Birdie Steptoe
Evelyn Varden 	 ... 	 Icey Spoon
Peter Graves 	 ... 	 Ben Harper
Don Beddoe 	 ... 	 Walt Spoon
Billy Chapin 	 ... 	 John Harper
Sally Jane Bruce 	 ... 	 Pearl Harper
Gloria Castillo 	 ... 	 Ruby (as Gloria Castilo)

Stats:
Format                           : AVI
Format/Info                      : Audio Video Interleave
File size                        : 700 MiB
Duration                         : 1h 33mn
Overall bit rate                 : 1 050 Kbps
Writing application              : Nandub v1.0rc2
Writing library                  : Nandub build 1852/release

Video
ID                               : 0
Format                           : MPEG-4 Visual
Format profile                   : Advanced Simple@L5
Format settings, BVOP            : 2
Format settings, QPel            : No
Format settings, GMC             : No warppoints
Format settings, Matrix          : Default (H.263)
Codec ID                         : XVID
Codec ID/Hint                    : XviD
Duration                         : 1h 33mn
Bit rate                         : 967 Kbps
Width                            : 592 pixels
Height                           : 352 pixels
Display aspect ratio             : 1.682
Frame rate                       : 23.976 fps
Color space                      : YUV
Chroma subsampling               : 4:2:0
Bit depth                        : 8 bits
Scan type                        : Progressive
Compression mode                 : Lossy
Bits/(Pixel*Frame)               : 0.194
Stream size                      : 645 MiB (92%)
Writing library                  : XviD 64

Audio
ID                               : 1
Format                           : MPEG Audio
Format version                   : Version 1
Format profile                   : Layer 3
Codec ID                         : 55
Codec ID/Hint                    : MP3
Duration                         : 1h 33mn
Bit rate mode                    : Variable
Bit rate                         : 69.8 Kbps
Nominal bit rate                 : 80.0 Kbps
Channel(s)                       : 1 channel
Sampling rate                    : 48.0 KHz
Compression mode                 : Lossy
Stream size                      : 46.5 MiB (7%)
Alignment                        : Aligned on interleaves
Interleave, duration             : 24 ms (0.58 video frame)
Interleave, preload duration     : 253 ms
Writing library                  : LAME3.98r
Encoding settings                : -m m -V 4 -q 3 -lowpass 20.3 --abr 80




Release notes:
Previous rips (from the MGM DVD's) were FS. The Criterion Blu-ray is 1.66:1 which is the OAR.

enjoy!

Looking for:
75TB+ Archives
DUTCH/FLEMiSH Archives
                                                                                                    
Greets: CRBS EPiSODE FiCO FLS iLS KLASSiGER LiPSYNC MADE NODLABS RUNNER SPRiNTER      
   

                                                                    ASCII DONE BY XX^NFO 2oo9